<?xml version="1.0" encoding="UTF-8"?>
<svg id="Layer_1" data-name="Layer 1" xmlns="http://www.w3.org/2000/svg" viewBox="0 0 1200 1200">
  <defs>
    <style>
      .cls-1 {
        fill: #0070ff;
      }
    </style>
  </defs>
  <g>
    <path class="cls-1" d="M872,548.07c-10.8-8.72-23.63-7.74-33.47,2.55-1.16,1.22-2.3,2.46-3.44,3.7l-.09.1c-.59.64-1.18,1.29-1.77,1.93l-23.75,25.65c-18.03,19.47-36.05,38.94-54.06,58.43-7.17,7.76-14.07,11.4-21.73,11.46-25,.2-50.46.19-75.07.19h-1.8c-10.36,0-20.73,0-31.08,0-.03-.13-.06-.26-.08-.35-.06-.29-.12-4.56-.21-4.79.06-.48.25-.85.39-1.05.91-.03,1.87-.02,3.01-.01h1.55c9.69,0,18.79,0,27.64.01,21.7,0,42.19.02,66.27-.1,15.58-.07,26.95-6.58,31.18-19.6,4.74-14.58-.22-27.46-12.35-35.03-6.43-4.01-14.79-6.47-22.35-6.56-22.04-.27-41.34-.27-61.86-.28-14.71,0-29.91,0-46.24-.12-3.02-.02-6.27-.88-8.28-2.19-8.45-5.51-17.45-8.72-26.74-11.52-10.01-3.02-19.94-4.59-29.26-4.91-11.29-.4-22.45-.24-30.92-.06-1.44.03-2.87.05-4.31.07-7.43.1-15.11,1.21-22.66,2.88-14.25,3.16-28.53,11.85-42.45,25.82-11.76,11.81-23.95,23.63-35.73,35.06l-.09.09c-5.63,5.46-11.25,10.91-16.86,16.39-1.04,1.02-1.94,2.02-2.76,2.92-.29.32-.57.64-.84.92l-5.31,5.71,110.54,110.71,5.72-6.23c.26-.29.53-.56.78-.82l.08-.08c.77-.8,1.64-1.7,2.49-2.82,10.83-14.33,25.22-20.91,45.26-20.73,31.05.3,62.58.26,93.08.21h.5c24.12-.04,49.06-.07,73.58.07h.63c30.2,0,54.51-12.28,72.25-36.5,24.42-33.33,48.88-67.16,72.53-99.88l12.43-17.19c8.33-11.52,6.56-25.21-4.4-34.06ZM409.11,655.11c4.8-4.68,9.61-9.35,14.44-14.03l.09-.08c11.84-11.48,24.08-23.36,35.94-35.26,12.82-12.87,26.69-20.63,40.11-22.45,6.68-.91,13.7-1.8,20.49-1.69,2.22.03,4.43.07,6.62.07.11,0,.2,0,.3,0,9.26,0,19.01.1,28.96.3,12.39.26,26.43,5.1,39.53,13.64,4.56,2.97,10.92,4.77,17,4.81,16.23.11,31.34.11,45.94.12h.5c20.37,0,39.62,0,61.56.28,4.66.06,10.02,1.63,13.98,4.1,6.58,4.11,7.51,13.15,5.52,19.29-2.01,6.2-7.35,5.37-15.85,5.41-23.32.11-43.31.11-64.49.1h-5.38c-7.7,0-15.62-.01-23.98,0-.47,0-.95,0-1.42,0-1.29-.01-2.74-.02-4.25.04-8.58.38-15.53,9.28-15.49,18.61.03,9.51,6.99,19.95,15.84,19.95,9.39-.01,18.75,0,28.12,0h3.62c23.7,0,50.58.02,77-.19,12.27-.1,23.22-5.55,33.49-16.67,18.18-19.68,36.38-39.33,54.58-58.99l23.22-25.08c.58-.63,1.16-1.26,1.74-1.89l.19-.21c1.06-1.15,2.11-2.31,3.19-3.44,4.08-4.26,7.33-4.58,11.6-1.14,4.23,3.42,4.72,7.44,1.45,11.96l-12.44,17.2c-23.64,32.69-48.08,66.5-72.47,99.8-14.73,20.1-34.08,29.88-59.18,29.88h-.56c-24.58-.14-49.55-.11-73.71-.07h-.48c-30.41.05-61.85.09-92.9-.21-.29,0-.57,0-.86,0-23.05,0-40.85,7.62-54.33,23.27l-87.25-87.38Z"/>
    <path class="cls-1" d="M451.43,836.19c-44.07-44.31-88.73-89.21-133.05-133.77,17.49-17.47,34.8-34.77,51.89-51.84,44.31,44.34,89.1,89.14,133.39,133.45-16.9,16.88-34.08,34.04-52.23,52.16Z"/>
  </g>
  <g>
    <path class="cls-1" d="M689.04,374.01c.07,20.27-16.36,36.8-36.6,36.81-20.24.01-36.71-16.49-36.66-36.75.04-20.01,16.33-36.39,36.31-36.52,20.3-.13,36.88,16.22,36.95,36.45Z"/>
    <g>
      <path class="cls-1" d="M559.75,468.77c-26.08-38.85-24.43-99.93,19.1-139.56,41.31-37.61,105.87-37.61,147.12-.01,43.58,39.73,45.12,100.81,19.14,139.5-12.71-24.48-31.75-41.7-57.92-51.84,14.38-13.13,21.59-28.75,19.88-47.69-1.27-14.01-7.27-25.92-17.71-35.49-20.76-19.04-52.76-19.23-73.47-.37-12.4,11.29-18.6,25.41-18.33,42.16.27,16.52,7.55,29.96,20.1,41.4-25.97,10.17-45.06,27.1-57.9,51.91Z"/>
      <path class="cls-1" d="M616.32,437.31c5.96,17.61,17.46,28.33,36.19,28.24,18.46-.08,29.82-10.72,35.79-28.27,20.51,10.06,34.95,25.42,42.98,46.65.45,1.2-.63,3.61-1.74,4.69-24.16,23.59-53.2,34.34-86.82,31.63-25.37-2.05-47.22-12.49-65.99-29.7-3.78-3.46-4.08-6.34-2.02-10.76,8.88-19.03,22.51-33.21,41.61-42.48Z"/>
      <path class="cls-1" d="M634.61,431.72c9.67-3.54,27.31-3.44,35.45.05-1.47,9.3-8.22,15.45-17.19,15.66-9.07.21-16.05-5.71-18.26-15.71Z"/>
    </g>
  </g>
</svg>