<?xml version="1.0" encoding="UTF-8"?>
<svg id="Layer_1" data-name="Layer 1" xmlns="http://www.w3.org/2000/svg" viewBox="0 0 1200 1200">
  <defs>
    <style>
      .cls-1 {
        fill: #0070ff;
      }
    </style>
  </defs>
  <path class="cls-1" d="M450.44,461.53c0-33.3-.09-66.6.03-99.9.09-24.28,15.28-43.8,38.32-49.31,4.33-1.04,8.91-1.5,13.37-1.51,59.64-.1,119.29-.11,178.93-.05,30.21.03,51.81,21.57,51.66,51.82-.03,5.47,1.36,6.98,6.88,7.88,44.12,7.22,76.24,39.43,83.61,83.17,8.71,51.69-28.43,104-80.01,112.69q-10.33,1.74-10.33,12.06c0,65.38.03,130.77-.02,196.15-.02,24.89-14.81,44.55-37.88,50.18-4.5,1.1-9.24,1.63-13.87,1.64-59.64.11-119.29.12-178.93.05-30.17-.03-51.64-21.65-51.76-51.89-.02-4.68-.06-9.37.01-14.05.07-4.57.91-9.13-5.18-11.27-1.63-.57-2.54-4.25-3.03-6.66-.51-2.5-.22-5.18-.1-7.78.12-2.61-.24-4.5-3.21-5.63-2.76-1.05-4.47-.6-6.37,1.45-3.06,3.3-6.26,6.49-9.57,9.55-4.33,4-8.08,4.04-12.32-.09-7.95-7.74-15.79-15.6-23.55-23.53-4.35-4.45-4.3-8.2-.07-12.69,3.09-3.28,6.24-6.52,9.56-9.56,2.17-1.99,2.81-4.17.93-6.3-1.24-1.41-3.3-2.9-5.04-2.96-16.88-.62-16.98-.64-16.98-17.56,0-7.28-.06-14.57.02-21.85.07-7.07,3.09-9.99,10.23-10.1,2.25-.04,4.6.38,6.73-.13,1.84-.44,3.8-1.58,5.05-2.99,1.89-2.15,1.2-4.32-.96-6.3-3.32-3.05-6.47-6.28-9.56-9.57-4.1-4.36-4.29-8.14-.24-12.31,7.97-8.21,16.07-16.31,24.29-24.27,3.81-3.69,7.58-3.62,11.55-.06,3.22,2.89,6.23,6.03,9.23,9.16,2,2.08,3.65,3.64,7.1,2.21,3.31-1.37,3.21-3.56,3.16-6.19-.04-2.6-.55-5.37.17-7.76.78-2.61,2.22-6.2,4.29-7.01,4.01-1.57,3.88-4.09,3.88-7.3-.05-33.82-.03-67.64-.03-101.46ZM466.81,568.88c3.55,0,6.49,0,9.42,0,13.89,0,15.24,1.33,15.26,14.99,0,.87-.29,1.89.06,2.57.84,1.62,1.7,3.86,3.1,4.39,1.65.62,4.43.37,5.76-.7,3.62-2.92,6.67-6.56,10.07-9.77,4.34-4.1,8.1-4.28,12.31-.2,8.09,7.84,16.05,15.83,23.9,23.92,4.1,4.22,4.01,7.99,0,12.33-3.06,3.3-6.25,6.51-9.56,9.57-2.08,1.92-3.08,4.02-1.16,6.27,1.23,1.44,3.15,2.76,4.97,3.11,2.67.52,5.68-.42,8.25.3,2.77.79,6.39,2.18,7.5,4.38,1.69,3.36,3.64,3.82,6.8,3.82,38.15-.07,76.29-.04,114.44-.06,1.68,0,3.36-.17,5.6-.3v-5.91c0-24.28,0-48.56,0-72.85,0-6.29-4.01-9.89-10.43-9.2-12.56,1.35-25.12,2.76-37.67,4.2-4.03.46-7.19-.74-9.15-4.39-1.94-3.61-.77-6.75,1.86-9.44,4.48-4.6,9.07-9.07,13.57-13.65,1.24-1.26,2.29-2.69,4.5-5.33h-128.8v-16.66h116.81c-1.57-4.45-3.19-8.11-4.11-11.94-.93-3.88-2.79-5.09-6.83-5.07-39.36.16-78.72.1-118.08.11-1.67,0-3.33.18-5.47.31v57.56h-16.01c0-20.86,0-41.31,0-61.76,0-9.84,2.39-12.21,12.31-12.21,41.09,0,82.19,0,123.28,0h6c0-2.11.02-3.32,0-4.52-.47-22.14,5.06-42.6,17.88-60.75,17-24.05,40.29-37.96,69.47-42.09,1.46-.21,3.81-1.65,3.93-2.73,2.52-21.31-9.87-35.68-25.87-39.45-3.09-.73-5.14-.23-7.36,2.05-8.59,8.82-17.17,17.67-26.21,26.02-2.52,2.33-6.61,4.13-10,4.16-36.93.29-73.86.3-110.79,0-3.53-.03-7.78-1.94-10.42-4.37-8.94-8.2-17.39-16.93-25.83-25.65-2.38-2.45-4.58-2.91-7.82-2.13-15.01,3.61-25.74,16.79-25.76,32.42-.05,67.82-.03,135.63-.01,203.45,0,1.52.16,3.04.28,5.21ZM466.52,751.5c0,8.96-.05,17.24.01,25.52.12,15.46,10.18,28.97,25.24,32.1,7.97,1.66,16.39,1.16,25.26,1.68,0-3.58-.06-6.13,0-8.68.38-14.14,10.62-24.89,24.68-24.99,33.28-.23,66.57-.2,99.85-.01,12.36.07,21.74,8.21,24.05,20.37.76,4.01.71,8.18,1.08,12.86,4.79,0,9.42,0,14.05,0,22.2-.02,36.04-13.79,36.04-35.92.01-66.76,0-133.53,0-200.29,0-1.39.22-2.84-.13-4.14-.26-.95-1.17-2.29-1.98-2.44-4.83-.89-9.72-1.48-15.11-2.24v6.23c0,24.97,0,49.94,0,74.91,0,11.39-2,13.43-13.18,13.43-40.57,0-81.13,0-121.7,0h-6.63c0,2.84,0,5.04,0,7.25,0,17.2-.01,17.11-17.2,17.86-1.71.08-3.7,1.7-4.93,3.14-1.92,2.26-.86,4.35,1.21,6.26,3.31,3.06,6.5,6.26,9.56,9.56,4,4.31,4.07,8.11-.04,12.33-7.86,8.08-15.81,16.07-23.9,23.91-4.19,4.06-7.96,3.87-12.31-.22-3.28-3.09-6.51-6.25-9.55-9.57-1.97-2.15-4.12-2.89-6.28-.99-1.42,1.24-2.54,3.2-3.03,5.04-.51,1.95-.1,4.13-.12,6.21-.08,7.84-2.89,10.73-10.59,10.81-4.49.04-8.99,0-14.37,0ZM657.83,540.85c3.14-.3,6.07-.41,8.95-.87,7.5-1.2,14.26-.57,21.4,3.27,15.19,8.17,31.75,10.46,48.93,7.92,44.26-6.52,76.57-48.39,70.65-91.69-6.45-47.23-46.98-79.09-93.27-73.32-62.95,7.85-94.2,80.51-56.73,131.91q7.83,10.74.07,21.34c-.08.11,0,.32,0,1.43ZM417.89,724.25c3.15-3.75,5.98-7.22,8.94-10.59,3.45-3.94,7.47-4.41,12.18-2.17,4.05,1.93,8.27,3.56,12.51,5.02,4.53,1.56,6.82,4.51,6.8,9.28,0,3.03,0,6.07,0,9.14h16.96c0-2.89-.03-5.45,0-8,.08-6.49,1.69-8.53,7.72-10.63,3.75-1.31,7.53-2.69,11.04-4.52,5.05-2.62,9.2-2.03,13.08,2.14,3.01,3.24,6.27,6.25,8.97,8.91,4.83-4.59,9.05-8.61,14.61-13.91-3.57-2.98-7.05-5.8-10.43-8.74-3.93-3.43-4.45-7.45-2.2-12.18,1.93-4.05,3.56-8.27,5.01-12.52,1.55-4.53,4.44-6.86,9.25-6.81,3.04.03,6.07,0,9.18,0v-16.95c-2.88,0-5.43.03-7.98,0-6.45-.08-8.57-1.74-10.65-7.72-1.31-3.75-2.7-7.53-4.52-11.05-2.6-5.04-2.06-9.2,2.13-13.08,3.25-3,6.25-6.28,8.93-8.99-4.6-4.82-8.62-9.03-13.89-14.54-2.97,3.53-5.79,7.01-8.75,10.37-3.63,4.13-7.81,4.37-12.65,1.97-3.86-1.92-7.95-3.4-12.04-4.79-4.54-1.54-6.83-4.49-6.82-9.26,0-3.04,0-6.07,0-9.16h-16.95c0,2.89.03,5.44,0,7.99-.08,6.47-1.72,8.55-7.72,10.63-3.76,1.3-7.52,2.7-11.04,4.52-5.04,2.61-9.21,2.04-13.09-2.14-3.01-3.24-6.27-6.25-8.95-8.9-4.84,4.59-9.06,8.6-14.15,13.43,3.41,3.13,6.69,6.17,9.99,9.18,3.86,3.52,4.39,7.5,2.16,12.21-1.92,4.06-3.56,8.27-5.02,12.51-1.56,4.53-4.51,6.81-9.28,6.81-3.03,0-6.07,0-9.13,0v16.96c2.9,0,5.45-.03,8.01,0,6.48.08,8.52,1.7,10.61,7.73,1.3,3.76,2.7,7.52,4.52,11.04,2.61,5.05,2.02,9.21-2.14,13.09-3.24,3.02-6.25,6.27-9.44,9.51,4.62,4.61,8.65,8.63,14.24,14.21ZM519.76,327.17c5.89,5.86,10.91,11.02,16.18,15.93.94.88,2.9.92,4.39.92,34.16.05,68.32.04,102.48.02,1.36,0,3.22.23,4-.52,5.35-5.21,10.48-10.66,15.97-16.34h-143.01ZM650.2,810.17c0-3.1.1-5.67-.02-8.23-.25-5.47-3.37-8.74-8.87-8.75-33.12-.08-66.24-.05-99.36-.03-4.6,0-7.76,2.37-8.57,6.78-.6,3.27-.12,6.73-.12,10.23h116.94Z"/>
  <path class="cls-1" d="M657.83,540.85c0-1.12-.07-1.33,0-1.43q7.76-10.6-.07-21.34c-37.47-51.4-6.23-124.06,56.73-131.91,46.28-5.77,86.82,26.09,93.27,73.32,5.92,43.3-26.39,85.16-70.65,91.69-17.19,2.53-33.74.25-48.93-7.92-7.14-3.84-13.9-4.47-21.4-3.27-2.87.46-5.8.58-8.95.87ZM733.03,543.28c0-4.32.26-8.11-.07-11.86-.35-4.03,1.01-6.04,4.92-7.67,14.85-6.18,22.59-21.7,19.17-37.4-3.27-15.01-15.67-24.94-32.28-25.87-9.11-.51-16.03-6.93-16.66-15.47-.64-8.69,5.46-16.51,13.99-17.93,8.51-1.42,16.33,3.7,19.05,12.47.39,1.26.75,2.53,1.08,3.66h15.27c.73-12.13-7.2-24.61-19.42-29.52-4.27-1.72-5.39-3.98-5.09-8.08.27-3.73.06-7.5.06-11.28h-16.36c0,3.9-.3,7.38.07,10.79.5,4.64-1.12,6.9-5.63,8.77-12.45,5.16-20.18,18.43-19.34,31.68.89,13.96,10.34,26.03,23.68,29.77,3.46.97,7.15,1.17,10.76,1.55,8.36.86,14.89,7.46,15.39,15.67.51,8.47-5.43,16.09-13.75,17.65-8.07,1.51-16.09-3.25-18.85-11.21-.55-1.6-.98-3.24-1.43-4.75h-15.9c1.25,14.07,7.6,24.13,20.22,29.52,3.92,1.68,5.17,3.74,4.85,7.72-.31,3.87-.07,7.78-.07,11.8h16.36Z"/>
  <path class="cls-1" d="M417.89,724.25c-5.59-5.57-9.62-9.6-14.24-14.21,3.2-3.24,6.21-6.49,9.44-9.51,4.16-3.88,4.76-8.04,2.14-13.09-1.82-3.52-3.22-7.29-4.52-11.04-2.09-6.04-4.14-7.66-10.61-7.73-2.55-.03-5.1,0-8.01,0v-16.96c3.06,0,6.1,0,9.13,0,4.76,0,7.72-2.27,9.28-6.81,1.46-4.25,3.1-8.46,5.02-12.51,2.22-4.71,1.7-8.69-2.16-12.21-3.3-3.01-6.59-6.05-9.99-9.18,5.09-4.83,9.32-8.84,14.15-13.43,2.68,2.65,5.94,5.66,8.95,8.9,3.88,4.17,8.05,4.74,13.09,2.14,3.52-1.82,7.29-3.22,11.04-4.52,6.01-2.08,7.64-4.16,7.72-10.63.03-2.55,0-5.1,0-7.99h16.95c0,3.09,0,6.12,0,9.16-.01,4.77,2.28,7.72,6.82,9.26,4.09,1.39,8.19,2.88,12.04,4.79,4.84,2.41,9.02,2.16,12.65-1.97,2.96-3.36,5.78-6.84,8.75-10.37,5.27,5.52,9.29,9.73,13.89,14.54-2.68,2.72-5.68,5.99-8.93,8.99-4.19,3.88-4.74,8.04-2.13,13.08,1.82,3.52,3.21,7.29,4.52,11.05,2.08,5.98,4.2,7.63,10.65,7.72,2.55.03,5.1,0,7.98,0v16.95c-3.11,0-6.15.02-9.18,0-4.8-.05-7.7,2.29-9.25,6.81-1.45,4.25-3.09,8.47-5.01,12.52-2.25,4.72-1.73,8.74,2.2,12.18,3.37,2.95,6.86,5.76,10.43,8.74-5.57,5.3-9.78,9.31-14.61,13.91-2.7-2.66-5.96-5.67-8.97-8.91-3.88-4.17-8.04-4.76-13.08-2.14-3.52,1.83-7.29,3.21-11.04,4.52-6.03,2.1-7.64,4.14-7.72,10.63-.03,2.56,0,5.11,0,8h-16.96c0-3.07,0-6.11,0-9.14.01-4.77-2.27-7.72-6.8-9.28-4.25-1.46-8.46-3.09-12.51-5.02-4.71-2.24-8.73-1.76-12.18,2.17-2.95,3.37-5.78,6.85-8.94,10.59ZM466.48,701.66c22.87.13,41.72-18.63,41.77-41.59.05-22.36-18.5-41.12-40.91-41.36-22.94-.25-41.94,18.43-42.01,41.3-.07,22.72,18.5,41.52,41.15,41.65Z"/>
  <path class="cls-1" d="M666.06,577.51v15.46h-106.98v-15.46h106.98Z"/>
  <path class="cls-1" d="M666.05,610.82v15.47h-106.98v-15.47h106.98Z"/>
  <path class="cls-1" d="M607.57,559.82h-90.15v-15.64h90.15v15.64Z"/>
  <path class="cls-1" d="M466.48,701.66c-22.65-.13-41.22-18.93-41.15-41.65.07-22.87,19.07-41.55,42.01-41.3,22.41.24,40.96,19,40.91,41.36-.05,22.96-18.9,41.72-41.77,41.59ZM491.88,660.27c.03-13.87-11.17-25.15-25.01-25.18-13.86-.03-25.09,11.13-25.18,25.02-.09,13.82,11.2,25.2,24.99,25.18,13.9-.01,25.16-11.2,25.19-25.02Z"/>
</svg>