<svg xmlns="http://www.w3.org/2000/svg" id="Layer_1" viewBox="0 0 227.24 228.99"><defs><style>      .cls-1 {        fill: #fff;      }    </style></defs><path class="cls-1" d="M6.78,109.96c-2.46-.35-4.28-1.52-5.47-3.51-1.19-1.99-1.57-4.51-1.13-7.56.48-3.36,1.58-5.81,3.31-7.34,1.73-1.53,4.19-2.24,7.4-2.13l-.68,4.75c-1.82-.03-3.19.36-4.11,1.16-.92.81-1.52,2.16-1.79,4.05-.25,1.72-.09,3.08.46,4.07s1.46,1.58,2.74,1.76c.41.06.78.05,1.12-.02.34-.07.66-.24.96-.5.3-.26.57-.55.81-.87.24-.32.5-.78.78-1.36.28-.58.53-1.16.75-1.72.22-.57.5-1.3.83-2.21.37-.98.7-1.83,1-2.54.3-.71.64-1.44,1.03-2.19.39-.75.77-1.37,1.15-1.87.38-.49.82-.96,1.32-1.4.5-.44,1.03-.77,1.59-.99.56-.22,1.19-.37,1.9-.45.7-.08,1.46-.06,2.28.05,2.72.39,4.68,1.63,5.87,3.73,1.2,2.1,1.53,4.97,1.02,8.6-.58,4.05-1.82,6.94-3.71,8.68-1.9,1.74-4.65,2.55-8.25,2.42l.67-4.73c2.15-.02,3.79-.55,4.93-1.6,1.14-1.05,1.88-2.83,2.24-5.32.3-2.13.15-3.78-.46-4.96-.61-1.17-1.62-1.86-3.03-2.06-.37-.05-.71-.06-1.02-.04s-.61.12-.88.28c-.28.16-.52.31-.73.48-.21.17-.43.43-.67.79-.23.36-.43.69-.59.97s-.36.71-.59,1.26c-.23.56-.43,1.04-.58,1.45-.15.41-.36.97-.63,1.7-.37.97-.7,1.81-1.01,2.52-.31.71-.66,1.43-1.04,2.14s-.76,1.32-1.14,1.81c-.38.49-.8.94-1.27,1.36-.47.42-.96.73-1.49.93-.53.21-1.11.35-1.75.42s-1.34.06-2.09-.04Z"></path><path class="cls-1" d="M31.67,79.39c-3.35.81-7.16,0-11.43-2.43-4.27-2.43-6.9-5.29-7.91-8.59-1-3.29-.4-6.88,1.81-10.75,2.2-3.86,4.97-6.2,8.32-7.01,3.34-.81,7.15,0,11.41,2.44,4.27,2.43,6.91,5.29,7.92,8.59,1.01,3.29.42,6.87-1.79,10.73-2.21,3.88-4.99,6.22-8.34,7.03ZM16.89,66.79c.78,2.19,2.71,4.16,5.78,5.91,3.07,1.75,5.75,2.41,8.04,1.97,2.29-.44,4.15-1.91,5.58-4.43,1.42-2.49,1.74-4.83.94-7.03-.79-2.19-2.72-4.16-5.79-5.91-3.06-1.74-5.73-2.39-8.02-1.96-2.29.44-4.14,1.9-5.56,4.39-1.43,2.51-1.76,4.87-.97,7.06Z"></path><path class="cls-1" d="M66.07,42.66l-14.06,12-18.54-21.73,3.73-3.18,15.76,18.47,10.33-8.82,2.78,3.26Z"></path><path class="cls-1" d="M67.86,29.34l-6.61-16.92,4.54-1.79,6.66,16.9c.86,2.19,1.94,3.6,3.24,4.23s3.1.5,5.41-.41c2.33-.92,3.77-2.06,4.29-3.42.53-1.36.36-3.13-.5-5.32l-6.66-16.9,4.56-1.8,6.66,16.9c1.36,3.46,1.52,6.37.48,8.73-1.05,2.36-3.46,4.29-7.26,5.79-3.77,1.48-6.84,1.72-9.21.71s-4.25-3.25-5.61-6.71Z"></path><path class="cls-1" d="M113.99,28.79l-4.9.13-.63-24.27-9.38.25-.11-4.28,23.65-.62.11,4.28-9.38.25.63,24.27Z"></path><path class="cls-1" d="M136.46,6.35l1.27-4.01,19.1,5.85-1.23,4.02-7.25-2.22-5.89,19.23,7.25,2.22-1.24,4.05-19.1-5.85,1.24-4.05,7.22,2.21,5.89-19.23-7.25-2.22Z"></path><path class="cls-1" d="M159.45,37.64c-.35-3.43.96-7.1,3.94-11,2.98-3.9,6.17-6.13,9.57-6.69,3.4-.55,6.87.53,10.41,3.23,3.53,2.7,5.48,5.76,5.83,9.18.35,3.42-.96,7.08-3.95,10.98-2.98,3.9-6.17,6.13-9.57,6.7s-6.86-.51-10.4-3.21c-3.54-2.71-5.49-5.78-5.85-9.21ZM173.92,24.69c-2.28.48-4.48,2.13-6.63,4.93-2.14,2.81-3.15,5.37-3.03,7.7.12,2.33,1.34,4.37,3.64,6.13,2.28,1.74,4.56,2.37,6.84,1.88,2.28-.49,4.49-2.14,6.64-4.94,2.13-2.79,3.14-5.36,3.02-7.68-.13-2.33-1.33-4.36-3.61-6.1-2.3-1.76-4.59-2.39-6.86-1.91Z"></path><path class="cls-1" d="M194.18,82.47l-5.11-8.82,19.47-22.13-.41-.71-24.18,14.01-2.46-4.24,24.71-14.32,5.11,8.82-19.47,22.13.41.71,24.18-14.01,2.46,4.24-24.71,14.32Z"></path><path class="cls-1" d="M217.48,87.35c2.45-.38,4.54.22,6.25,1.78,1.72,1.56,2.81,3.86,3.27,6.9.51,3.36.16,6.02-1.05,7.99s-3.37,3.36-6.46,4.18l-.72-4.75c1.75-.5,2.95-1.26,3.6-2.3s.83-2.5.54-4.39c-.26-1.72-.8-2.97-1.61-3.76s-1.86-1.09-3.13-.89c-.41.06-.76.18-1.07.35-.3.17-.56.42-.77.75s-.39.69-.52,1.07-.25.88-.35,1.53c-.1.64-.17,1.26-.22,1.87-.05.6-.1,1.39-.16,2.35-.07,1.04-.14,1.95-.22,2.71-.08.77-.19,1.56-.35,2.39-.16.83-.34,1.54-.56,2.12-.22.58-.5,1.16-.86,1.72s-.76,1.03-1.24,1.41c-.47.38-1.04.7-1.68.98-.65.28-1.38.48-2.19.61-2.72.41-4.95-.21-6.7-1.88-1.75-1.67-2.91-4.31-3.46-7.93-.62-4.04-.27-7.17,1.04-9.39,1.31-2.21,3.71-3.78,7.2-4.71l.72,4.72c-2.05.64-3.47,1.62-4.25,2.96s-.98,3.25-.6,5.74c.32,2.12.95,3.66,1.87,4.61s2.09,1.31,3.49,1.1c.37-.06.7-.14.99-.26.29-.12.55-.29.77-.52.22-.23.41-.45.56-.67.15-.22.29-.54.41-.95.12-.41.21-.78.29-1.1.07-.32.14-.78.2-1.38s.11-1.12.14-1.55c.03-.43.06-1.04.11-1.81.07-1.03.15-1.93.24-2.71.09-.77.22-1.56.38-2.35s.35-1.48.57-2.06c.22-.58.5-1.13.82-1.67s.71-.98,1.16-1.33.96-.65,1.55-.91c.59-.26,1.26-.44,2.01-.56Z"></path><path class="cls-1" d="M196.36,137.05l1.53-4.65,27.14,8.89-6.13,18.72-4.07-1.33,4.61-14.06-7.84-2.57-4.23,12.91-4.07-1.33,4.23-12.91-11.17-3.66Z"></path><path class="cls-1" d="M188.9,162.54c3.44-.24,7.06,1.2,10.86,4.31,3.8,3.11,5.92,6.38,6.36,9.79s-.75,6.85-3.58,10.3c-2.82,3.44-5.94,5.28-9.37,5.52-3.43.24-7.04-1.2-10.85-4.31-3.8-3.11-5.92-6.38-6.37-9.79-.45-3.41.74-6.84,3.56-10.28,2.83-3.45,5.96-5.3,9.4-5.54ZM201.37,177.44c-.41-2.29-1.98-4.55-4.71-6.79-2.73-2.24-5.26-3.33-7.59-3.29-2.33.05-4.41,1.19-6.25,3.43-1.82,2.22-2.52,4.48-2.11,6.77.41,2.29,1.98,4.56,4.72,6.8,2.72,2.23,5.25,3.32,7.58,3.27,2.33-.05,4.4-1.18,6.22-3.4,1.83-2.24,2.55-4.5,2.14-6.79Z"></path><path class="cls-1" d="M164.05,184.37l13.59,25.12-10.23,5.54c-3.18,1.72-5.74,2.43-7.68,2.12-1.95-.31-3.58-1.68-4.91-4.14-1.14-2.1-1.33-3.9-.58-5.38.75-1.49,2.53-2.99,5.35-4.51l-.39-.72-1.37.74c-1.3.7-2.53.98-3.71.85-1.17-.13-2.32-.75-3.43-1.86l-6.84-6.83,5.03-2.72,6.41,8.49c.34.45.61.7.82.74.21.04.57-.08,1.08-.36l8.15-4.41-5.59-10.33,4.31-2.33ZM171.3,208.06l-3.92-7.25-5.92,3.21c-1.65.89-2.68,1.78-3.12,2.67s-.27,2.04.49,3.44c.76,1.4,1.62,2.16,2.59,2.28.97.12,2.29-.26,3.96-1.13l5.92-3.21Z"></path><path class="cls-1" d="M126.15,214.32c-.08,4.94-1.22,8.64-3.41,11.09-2.19,2.46-5.39,3.65-9.6,3.58-3.72-.06-6.6-1.04-8.65-2.94s-3.21-4.7-3.48-8.39l5.1.08c.25,2.38.95,4.13,2.1,5.24,1.14,1.11,2.8,1.69,4.96,1.72,5.27.09,7.96-3.4,8.08-10.46.06-3.54-.52-6.21-1.73-8-1.21-1.79-3.12-2.7-5.72-2.74-2.27-.04-3.89.58-4.86,1.84-.97,1.27-1.51,3.44-1.63,6.54l10.08.16-.07,4.28-8.9-.14c-4.02-.07-6.55-1.99-7.58-5.78l-2.91-10.82,5.7.09,1.44,9.72.82-.03c.08-3.48.8-6.05,2.16-7.71,1.36-1.67,3.43-2.47,6.21-2.43,3.93.06,6.92,1.4,8.96,4,2.04,2.6,3.03,6.3,2.95,11.09Z"></path><path class="cls-1" d="M87.13,199.52c1.14,3.25.71,7.12-1.29,11.61-2,4.49-4.59,7.39-7.76,8.72-3.18,1.33-6.8,1.08-10.88-.73-4.06-1.81-6.66-4.34-7.8-7.58-1.13-3.25-.7-7.11,1.29-11.6s4.58-7.4,7.76-8.73,6.79-1.1,10.86.71c4.08,1.81,6.68,4.35,7.82,7.6ZM76.06,215.47c2.1-1,3.87-3.11,5.31-6.34,1.44-3.23,1.82-5.96,1.16-8.19-.66-2.23-2.31-3.94-4.96-5.12-2.62-1.17-4.98-1.25-7.09-.24-2.1,1-3.87,3.12-5.31,6.35-1.43,3.21-1.82,5.94-1.15,8.17.66,2.24,2.3,3.94,4.92,5.1,2.64,1.18,5.02,1.27,7.12.27Z"></path><path class="cls-1" d="M55.4,181.8c-.25,3.44-2.19,6.82-5.81,10.14-3.62,3.32-7.15,4.96-10.59,4.91-3.44-.05-6.67-1.72-9.69-5-3.01-3.28-4.39-6.63-4.14-10.06.25-3.43,2.19-6.8,5.8-10.12,3.62-3.32,7.15-4.96,10.59-4.92s6.67,1.7,9.67,4.97c3.02,3.29,4.4,6.65,4.15,10.09ZM38.89,192.03c2.32-.08,4.79-1.31,7.39-3.7,2.6-2.39,4.04-4.74,4.33-7.05.28-2.31-.55-4.54-2.51-6.67-1.94-2.11-4.07-3.13-6.4-3.04-2.33.08-4.79,1.32-7.4,3.71-2.59,2.38-4.03,4.72-4.31,7.04-.28,2.31.55,4.53,2.48,6.64,1.96,2.13,4.1,3.16,6.42,3.08Z"></path><path class="cls-1" d="M33.8,144.58l3.48,9.63-26.86,9.7-3.48-9.63c-1.61-4.47-1.71-8.14-.27-11,1.43-2.86,4.44-5.12,9.04-6.78,4.6-1.66,8.36-1.85,11.29-.56s5.2,4.17,6.81,8.64ZM10.96,152.82l1.81,5.02,18.81-6.79-1.81-5.02c-1.06-2.95-2.58-4.8-4.56-5.55s-4.62-.54-7.92.66-5.46,2.7-6.45,4.52c-.99,1.82-.95,4.21.12,7.17Z"></path></svg>