<?xml version="1.0" encoding="UTF-8"?>
<svg id="Layer_1" data-name="Layer 1" xmlns="http://www.w3.org/2000/svg" viewBox="0 0 1200 1200">
  <defs>
    <style>
      .cls-1 {
        fill: #0070ff;
      }
    </style>
  </defs>
  <path class="cls-1" d="M839.45,717.71c0-26.44.01-52.88,0-79.33,0-6.37-2.54-8.92-8.82-9-1.74-.02-3.48,0-5.23,0-22.95,0-45.89,0-69.08,0-1.29-5.45-.5-8.46,5.07-10.9,11.04-4.84,16.74-14.26,17.14-26.35.35-10.6.21-21.22.03-31.82-.15-8.83-3.58-16.44-10.37-22.07-3.58-2.97-7.93-5.01-12-7.51v-22.87c14.92,0,29.48.15,44.03-.14,2.54-.05,5.63-1.29,7.46-3.04,9.73-9.29,19.26-18.81,28.56-28.53,1.75-1.83,3.07-4.93,3.08-7.45.18-44.81.14-89.62.12-134.43,0-6.24-2.7-8.9-8.95-8.9-44.65,0-89.31-.07-133.96.15-2.78.01-6.16,1.55-8.21,3.48-9.53,9.04-18.82,18.34-27.89,27.85-1.85,1.94-3.24,5.14-3.31,7.81-.34,12.97-.15,25.96-.15,38.95,0,1.67,0,3.35,0,5.17h-15.83c-.37-.73-.78-1.4-1.07-2.13-5.49-13.56-15.45-20.42-29.97-20.5-9.98-.05-19.96-.23-29.93.08-12.13.38-21.47,6.13-26.34,17.13-2.44,5.51-5.35,6.48-10.84,5.03v-4.94c0-22.8,0-45.6,0-68.4,0-7.27-2.43-9.68-9.58-9.68-44.34,0-88.68.03-133.01-.05-3.6,0-6.25,1.08-8.77,3.67-9.06,9.3-18.47,18.26-27.37,27.7-2.02,2.14-3.57,5.71-3.58,8.63-.22,44.02-.15,88.03-.14,132.05,0,8.11,2.36,10.49,10.41,10.49,22.64.01,45.29,0,67.93,0,1.67,0,3.34,0,5.28,0v23.32c-.97.46-1.66.84-2.4,1.13-13.21,5.29-20.32,15.54-20.4,29.58-.06,9.97-.23,19.96.06,29.92.35,12.3,6.09,21.82,17.31,26.73,5.65,2.48,6.2,5.54,4.92,10.83-1.53,0-3.08,0-4.62,0-12.98,0-25.97-.2-38.95.16-2.8.08-6.16,1.54-8.21,3.48-9.53,9.04-18.83,18.34-27.89,27.85-1.85,1.94-3.3,5.17-3.31,7.81-.2,44.49-.15,88.98-.12,133.47,0,7.06,2.66,9.67,9.82,9.67,44.5.03,88.99.08,133.49-.1,2.52,0,5.57-1.37,7.45-3.1,6.4-5.9,11.84-12.93,18.64-18.26,10.72-8.39,14.85-18.47,13.29-32.01-1.13-9.8-.22-19.83-.22-29.63,5.46-1.35,8.41-.48,10.86,5.07,4.86,11.02,14.28,16.74,26.36,17.13,10.6.35,21.22.29,31.82.01,10.7-.28,19.12-5.12,24.95-14.13,1.69-2.62,2.84-5.59,4.16-8.26h15.82c0,2.06,0,3.79,0,5.51,0,22.48,0,44.97,0,67.45,0,7.83,2.42,10.3,10.11,10.31,44.34.02,88.68.08,133.01-.11,2.65-.01,5.89-1.46,7.83-3.31,9.51-9.06,18.82-18.35,27.85-27.89,1.94-2.05,3.46-5.41,3.51-8.2.31-18.2.15-36.41.15-54.62ZM756.36,548.37c4.56,2.99,6.9,7.07,6.97,12.23.14,10.43.16,20.86-.01,31.28-.08,4.98-2.31,9.03-7.15,12.18-.46-6.13-.26-12.72-8.61-12.57-4.85.09-6.62,3.28-7.2,12.38-4.85-2.47-7.08-6.51-7.2-11.32-.29-10.89-.25-21.81-.02-32.7.1-4.78,2.49-8.64,7.14-11.67.8,9.5,2.67,12.54,7.55,12.79,4.97.25,6.98-2.63,8.53-12.6ZM779.21,432.47c.04,12.47-4.75,24.18-13.5,32.98-8.74,8.79-20.4,13.64-32.84,13.66h-.09c-12.4,0-24.07-4.83-32.85-13.6-8.79-8.78-13.64-20.46-13.63-32.87.01-25.58,20.82-46.4,46.39-46.43h.05c12.4,0,24.05,4.79,32.8,13.5,8.77,8.72,13.62,20.35,13.66,32.76ZM823.58,354.21c.08,1.5.23,3,.23,4.5.01,34.16-.04,68.33.09,102.49.01,3.64-.97,6.28-3.67,8.69-3.5,3.13-6.68,6.61-10.78,10.74,0-37.88,0-74.41.04-110.94,0-1.18.27-2.67,1.01-3.49,3.86-4.33,7.92-8.49,11.9-12.71.39.24.79.48,1.18.72ZM697.18,342.37c1.02-.93,2.84-1.36,4.29-1.36,36.07-.07,72.14-.06,108.21-.05.57,0,1.14.09,2.94.25-5.11,4.97-9.44,9.27-13.9,13.42-.69.64-2.01.84-3.04.84-36.84.04-73.69.03-111.99.03,5.12-5.04,9.18-9.22,13.49-13.14ZM580.44,401.47c10.45-.18,20.9-.13,31.35-.02,5.05.05,9.05,2.31,12.38,7.29-6.59.09-13.13.33-12.64,8.9.26,4.55,3.45,6.15,12.54,6.82-2.86,4.6-6.63,6.99-11.17,7.12-11.23.3-22.49.32-33.72-.03-4.51-.14-8.26-2.61-10.77-6.85,9.8-1.5,12.49-3.27,12.53-8.09.04-4.99-2.95-6.97-12.57-8.05,2.8-4.78,6.94-7,12.07-7.09ZM527.36,353.71c0,9.11,0,17.61,0,26.1,0,7.6-.19,15.2.08,22.79.14,3.97-.88,5.76-5.18,5.8-2.97.03-5.92,1.27-9.28,2.06,0-9.26,1.05-19.3-.26-29.02-1.73-12.81,4.48-20.51,14.64-27.74ZM527.31,463.21c0,1.34-.22,3.04-1.04,3.94-3.96,4.42-8.16,8.63-13.06,13.72v-57.99c3.43.6,6.69,1.5,9.98,1.63,2.98.12,4.24.9,4.21,4.09-.14,11.54-.02,23.07-.1,34.61ZM401.24,341.92c.79-.73,2.32-.93,3.51-.93,36.55-.02,73.1.01,109.65.05.14,0,.28.11.93.39-4.47,4.56-8.77,9.03-13.21,13.35-.65.63-2.03.7-3.08.7-36.39.03-72.79.03-109.18.01-.42,0-.85-.17-2.04-.43,4.7-4.64,8.97-8.98,13.42-13.14ZM376.18,492.16v-120.56h120.67v120.56h-120.67ZM443.95,604.18c-4.83-3.13-7.18-7.07-7.28-12.02-.2-10.58-.19-21.17-.01-31.75.08-4.98,2.38-9.01,7.12-12.21.98,9.7,3.03,12.82,8.05,12.78,4.84-.04,6.68-2.85,8.04-12.59,4.58,2.95,6.97,6.97,7.03,12.15.13,10.43.13,20.86,0,31.28-.06,5.03-2.33,9.04-7.28,12.38-.17-6.28-.19-13.02-8.37-12.62-7.32.36-7.13,6.6-7.3,12.6ZM388.96,735.97c.04-12.41,4.9-24.04,13.66-32.76,8.75-8.71,20.4-13.5,32.8-13.5h.05c25.57.03,46.38,20.85,46.39,46.43,0,12.42-4.84,24.09-13.63,32.87-8.78,8.77-20.45,13.6-32.85,13.6h-.09c-12.44-.02-24.1-4.87-32.84-13.66-8.75-8.8-13.55-20.51-13.51-32.98ZM400.76,646.25c.82-.76,2.22-1.25,3.36-1.26,12.96-.09,25.93-.06,38.88-.06.89,4.79,1.76,9.41,2.66,14.21h-58.23c4.94-4.8,9.07-8.93,13.34-12.89ZM502.3,658.55c-.69.65-2.02.89-3.05.89-14.07.06-28.13.04-41.38.04.9-5.02,1.71-9.51,2.57-14.29h55.48c-4.91,4.85-9.2,9.18-13.63,13.36ZM513.04,673.67c0-1.31.45-2.93,1.3-3.86,3.89-4.3,8-8.4,13.02-13.6,0,7.73,0,13.97,0,20.21,0,10.42-.09,20.84.05,31.26.04,3.19-.96,4.46-4.26,4.7-3.29.24-6.53,1.31-10.17,2.1,0-13.35-.03-27.08.06-40.81ZM527.43,733.53c-.19,11.05-.02,22.1-.13,33.15-.02,1.62-.36,3.63-1.35,4.77-3.8,4.36-7.92,8.44-12.72,13.45v-58.06c3.23.62,6.35,1.73,9.45,1.68,3.91-.07,4.81,1.39,4.75,5.01ZM611.62,735.75c-10.29.14-20.59.12-30.88,0-5.2-.06-9.29-2.4-11.95-6.27,3.65-1.48,7.27-2.6,10.47-4.45,1.1-.63,1.59-3.08,1.6-4.71.03-4.96-3.18-6.89-12.68-7.62,3.25-4.95,7.39-7.17,12.59-7.22,10.29-.1,20.59-.11,30.88,0,5.62.06,9.24,2.37,11.79,6.98-9.57,1.65-12.04,3.32-12.04,8.13,0,4.8,2.53,6.51,12.5,8.24-3.03,4.57-7.13,6.84-12.28,6.91ZM660.13,661.17c-1.73,1.84-2.96,4.92-3.01,7.46-.28,14.55-.14,29.1-.14,44.36-4.9,0-9.59.15-14.25-.12-.97-.05-2.25-1.46-2.7-2.54-5.72-13.7-16.03-20.24-30.76-20.14-7.92.05-15.84.27-23.75-.04-16.76-.66-28.25,6.44-34.19,22.61-1.28.08-2.64.19-4.01.23-1.24.04-2.48,0-4.31,0,0-2.01,0-3.7,0-5.38,0-22.96,0-45.91,0-68.87,0-6.98-2.38-9.35-9.4-9.35-22.8-.02-45.6,0-68.4,0-1.72,0-3.44,0-5.49,0v-8.39c1.55-.65,3.33-1.29,5-2.14,10.96-5.58,16.95-14.52,17.39-26.81.31-8.7.08-17.41.08-26.12,0-18.83-5.32-27.06-22.58-34.66v-23.4c10.45,0,20.79-.86,30.91.22,12.84,1.36,22.36-2.55,30.37-12.65,5.47-6.9,12.62-12.44,18.58-18.99,1.9-2.09,3.3-5.44,3.38-8.25.35-12.97.16-25.96.16-38.94,0-1.54,0-3.08,0-4.53,5.41-1.42,8.36-.57,10.82,4.98,4.96,11.2,14.51,16.88,26.79,17.23,9.97.28,19.95.11,29.92.05,13.75-.07,24.28-7.29,29.39-20.03.35-.87.77-1.71,1.18-2.62h15.87c0,1.8,0,3.48,0,5.15,0,22.8-.01,45.6,0,68.39,0,7.48,2.49,9.98,9.93,9.99,22.64.02,45.28,0,67.93,0h5.45v23.55c-11.74,4.01-20.56,11.7-21.75,24.34-1.27,13.48-1.04,27.22-.06,40.74.74,10.25,7.35,17.6,16.55,22.26,6.13,3.1,6.17,3.03,5.04,10.62-11.44,0-23,.62-34.46-.19-9.82-.7-17.09,1.99-23.52,9.63-6.7,7.96-14.8,14.73-21.95,22.34ZM742.03,659.2h-58.18c5.05-4.92,9.37-9.21,13.8-13.38.6-.57,1.69-.84,2.56-.85,13.12-.05,26.23-.04,39.3-.04.91,5.16,1.7,9.65,2.51,14.27ZM793.31,796.14h-120.67v-120.56h120.67v120.56ZM798.76,658.53c-.69.66-2.01.9-3.05.91-14.07.06-28.14.04-41.4.04.91-5.02,1.72-9.51,2.58-14.29h55.46c-4.89,4.83-9.17,9.16-13.59,13.35ZM819.81,774.26c-3.16,2.99-5.75,6.58-8.59,9.91-.51-.38-1.03-.76-1.54-1.15-.07-1.51-.21-3.02-.21-4.53-.01-34.16.04-68.33-.09-102.49-.01-3.63.96-6.27,3.66-8.69,3.49-3.12,6.64-6.63,10.8-10.84,0,2.9,0,4.57,0,6.25,0,33.85-.07,67.7.09,101.55.02,4.14-1.11,7.15-4.11,9.99Z"/>
  <path class="cls-1" d="M731.9,439.56h.03c4.1,0,7.96-1.62,10.86-4.53,2.9-2.92,4.49-6.79,4.48-10.91,0-4.13-1.61-7.99-4.51-10.88-2.89-2.87-6.74-4.45-10.85-4.45h-.05c-8.61.03-15.34,6.8-15.33,15.41,0,4.12,1.61,7.98,4.52,10.88,2.9,2.89,6.76,4.48,10.86,4.48Z"/>
  <path class="cls-1" d="M744.89,447.01c-2.43-.64-4.17-.61-6.02.07-4.51,1.66-9.42,1.6-15.01-.2-.99-.32-2.07-.42-2.87-.26-7.35,1.42-12.72,3.92-16.92,7.88-.4.38-.79.81-1.2,1.27,5.06,6.52,11.07,10.73,18.33,12.84,15.43,4.49,28.89.8,40.01-10.97.19-.2.49-.52.71-.77-.2-.26-.5-.59-.75-.88-3.66-4.22-8.68-6.99-16.26-8.97Z"/>
  <path class="cls-1" d="M710.73,401.93c-7.71,5.56-13.02,13.71-14.95,22.94-1.66,7.96-.77,16.09,2.5,23.16,3.96-3.65,8.89-6.38,15.19-8.44-4.47-5.49-6.28-11.76-5.38-18.7.8-6.19,3.71-11.36,8.65-15.38,9.59-7.82,23.47-7.04,32.3,1.8,7.54,7.55,10.2,21.04,1.3,32.29,5.36,1.73,11.41,4.46,16.34,9.62,2.6-4.59,4.04-10.83,3.91-17.22-.12-6.17-1.75-15.27-8.79-23.64-6.17-7.33-14.79-12.03-24.29-13.24-9.51-1.21-19.02,1.21-26.78,6.8Z"/>
  <path class="cls-1" d="M436.32,712.29s-.03,0-.05,0c-4.11,0-7.96,1.58-10.85,4.45-2.9,2.89-4.5,6.75-4.51,10.88,0,4.12,1.58,7.99,4.48,10.91,2.9,2.92,6.75,4.53,10.86,4.53,0,0,.02,0,.03,0,4.11,0,7.96-1.59,10.86-4.48,2.91-2.9,4.51-6.76,4.52-10.88.01-8.61-6.72-15.38-15.33-15.41Z"/>
  <path class="cls-1" d="M419.14,710.8c8.82-8.84,22.71-9.61,32.3-1.8,4.94,4.02,7.84,9.2,8.65,15.38.9,6.94-.91,13.21-5.38,18.7,6.3,2.06,11.23,4.8,15.19,8.44,3.28-7.07,4.17-15.2,2.5-23.16-1.93-9.24-7.24-17.39-14.95-22.94-6.45-4.65-14.12-7.1-21.98-7.1-1.59,0-3.19.1-4.79.3-9.5,1.2-18.13,5.91-24.29,13.24-7.04,8.36-8.66,17.47-8.79,23.64-.13,6.39,1.31,12.63,3.91,17.22,4.93-5.16,10.98-7.89,16.34-9.62-8.9-11.25-6.24-24.74,1.3-32.29Z"/>
  <path class="cls-1" d="M465.32,759.26c-.41-.46-.8-.89-1.2-1.27-4.2-3.96-9.58-6.46-16.92-7.88-.81-.15-1.88-.06-2.87.26-5.6,1.8-10.51,1.87-15.02.2-1.85-.69-3.6-.7-6.02-.07-7.58,1.98-12.59,4.75-16.26,8.97-.25.29-.54.63-.75.88.22.25.52.57.71.77,11.12,11.77,24.58,15.46,40.01,10.97,7.26-2.11,13.27-6.32,18.33-12.84Z"/>
</svg>